<?xml version="1.0" encoding="UTF-8" standalone="no"?>
<svg
   xmlns:dc="http://purl.org/dc/elements/1.1/"
   xmlns:cc="http://creativecommons.org/ns#"
   xmlns:rdf="http://www.w3.org/1999/02/22-rdf-syntax-ns#"
   xmlns:svg="http://www.w3.org/2000/svg"
   xmlns="http://www.w3.org/2000/svg"
   viewBox="0 0 592 156"
   height="156"
   width="592"
   xml:space="preserve"
   id="svg2"
   version="1.1"><metadata
     id="metadata8"><rdf:RDF><cc:Work
         rdf:about=""><dc:format>image/svg+xml</dc:format><dc:type
           rdf:resource="http://purl.org/dc/dcmitype/StillImage" /></cc:Work></rdf:RDF></metadata><defs
     id="defs6"><clipPath
       id="clipPath16"
       clipPathUnits="userSpaceOnUse"><path
         style="clip-rule:evenodd"
         id="path14"
         d="M 66,5 V 122 H 510 V 5" /></clipPath><clipPath
       id="clipPath24"
       clipPathUnits="userSpaceOnUse"><path
         style="clip-rule:evenodd"
         id="path22"
         d="M 64,3 V 124 H 512 V 3" /></clipPath><clipPath
       id="clipPath32"
       clipPathUnits="userSpaceOnUse"><path
         style="clip-rule:evenodd"
         id="path30"
         d="M 73,5 V 122 H 503 V 5" /></clipPath><clipPath
       id="clipPath40"
       clipPathUnits="userSpaceOnUse"><path
         style="clip-rule:evenodd"
         id="path38"
         d="M 72,11 V 115 H 176 V 11" /></clipPath><clipPath
       id="clipPath48"
       clipPathUnits="userSpaceOnUse"><path
         style="clip-rule:evenodd"
         id="path46"
         d="m 81,12 v 102 h 86 V 12" /></clipPath><clipPath
       id="clipPath58"
       clipPathUnits="userSpaceOnUse"><path
         style="clip-rule:evenodd"
         id="path56"
         d="m 100,11 v 20 h 47 V 11" /></clipPath><clipPath
       id="clipPath70"
       clipPathUnits="userSpaceOnUse"><path
         style="clip-rule:evenodd"
         id="path68"
         d="m -2.591,-2.565 v 22 h 49 v -22" /></clipPath><clipPath
       id="clipPath100"
       clipPathUnits="userSpaceOnUse"><path
         style="clip-rule:evenodd"
         id="path98"
         d="M 181,11 V 115 H 285 V 11" /></clipPath><clipPath
       id="clipPath108"
       clipPathUnits="userSpaceOnUse"><path
         style="clip-rule:evenodd"
         id="path106"
         d="m 190,12 v 102 h 86 V 12" /></clipPath><clipPath
       id="clipPath124"
       clipPathUnits="userSpaceOnUse"><path
         style="clip-rule:evenodd"
         id="path122"
         d="m 209,11 v 20 h 47 V 11" /></clipPath><clipPath
       id="clipPath136"
       clipPathUnits="userSpaceOnUse"><path
         style="clip-rule:evenodd"
         id="path134"
         d="m -2.53,-2.565 v 22 h 49 v -22" /></clipPath><clipPath
       id="clipPath166"
       clipPathUnits="userSpaceOnUse"><path
         style="clip-rule:evenodd"
         id="path164"
         d="M 290,11 V 115 H 394 V 11" /></clipPath><clipPath
       id="clipPath174"
       clipPathUnits="userSpaceOnUse"><path
         style="clip-rule:evenodd"
         id="path172"
         d="m 299,12 v 102 h 86 V 12" /></clipPath><clipPath
       id="clipPath196"
       clipPathUnits="userSpaceOnUse"><path
         style="clip-rule:evenodd"
         id="path194"
         d="m 318,11 v 20 h 47 V 11" /></clipPath><clipPath
       id="clipPath208"
       clipPathUnits="userSpaceOnUse"><path
         style="clip-rule:evenodd"
         id="path206"
         d="m -2.47,-2.565 v 22 h 49 v -22" /></clipPath><clipPath
       id="clipPath238"
       clipPathUnits="userSpaceOnUse"><path
         style="clip-rule:evenodd"
         id="path236"
         d="M 399,11 V 115 H 503 V 11" /></clipPath><clipPath
       id="clipPath246"
       clipPathUnits="userSpaceOnUse"><path
         style="clip-rule:evenodd"
         id="path244"
         d="m 408,12 v 102 h 86 V 12" /></clipPath><clipPath
       id="clipPath276"
       clipPathUnits="userSpaceOnUse"><path
         style="clip-rule:evenodd"
         id="path274"
         d="m 427,11 v 20 h 47 V 11" /></clipPath><clipPath
       id="clipPath288"
       clipPathUnits="userSpaceOnUse"><path
         style="clip-rule:evenodd"
         id="path286"
         d="m -2.409,-2.565 v 22 h 49 v -22" /></clipPath></defs><g
     transform="matrix(1.3333333,0,0,1.3333333,-87.999998,-6.6666626)"
     id="g10"><g
       clip-path="url(#clipPath16)"
       id="g12"><g
         id="g18"><g
           clip-path="url(#clipPath24)"
           id="g20"><g
             id="g26"><g
               clip-path="url(#clipPath32)"
               id="g28"><g
                 id="g34"><g
                   clip-path="url(#clipPath40)"
                   id="g36"><g
                     id="g42"><g
                       clip-path="url(#clipPath48)"
                       id="g44"><path
                         id="path50"
                         style="fill:#000000;fill-opacity:1;fill-rule:evenodd;stroke:none"
                         d="m 126.9,71 c 0,-0.769 -0.305,-1.507 -0.849,-2.051 C 125.507,68.405 124.769,68.1 124,68.1 c -0.769,0 -1.507,0.305 -2.051,0.849 -0.544,0.544 -0.849,1.282 -0.849,2.051 0,0.769 0.305,1.507 0.849,2.051 0.544,0.544 1.282,0.849 2.051,0.849 0.769,0 1.507,-0.305 2.051,-0.849 0.544,-0.544 0.849,-1.282 0.849,-2.051 z" /><g
                         id="g52"><g
                           clip-path="url(#clipPath58)"
                           id="g54"><g
                             id="g60"><g
                               transform="translate(101.591,12.565)"
                               id="g62"><g
                                 id="g64"><g
                                   clip-path="url(#clipPath70)"
                                   id="g66"><text
                                   id="text74"
                                   style="font-style:italic;font-variant:normal;font-size:15px;font-family:Times;-inkscape-font-specification:Times-Italic;writing-mode:lr-tb;fill:#000000;fill-opacity:1;fill-rule:nonzero;stroke:none"
                                   transform="translate(1,13)"><tspan
                                   id="tspan72"
                                   y="0"
                                   x="0">z</tspan></text>
<text
                                   id="text78"
                                   style="font-style:italic;font-variant:normal;font-size:15px;font-family:Mathematica1;-inkscape-font-specification:'Mathematica1 Italic';writing-mode:lr-tb;fill:#000000;fill-opacity:1;fill-rule:nonzero;stroke:none"
                                   transform="translate(7,13)"><tspan
                                   id="tspan76"
                                   y="0"
                                   x="0">=</tspan></text>
<text
                                   id="text82"
                                   style="font-style:italic;font-variant:normal;font-size:15px;font-family:Times;-inkscape-font-specification:Times-Italic;writing-mode:lr-tb;fill:#000000;fill-opacity:1;fill-rule:nonzero;stroke:none"
                                   transform="translate(18,13)"><tspan
                                   id="tspan80"
                                   y="0"
                                   x="0">n</tspan></text>
<text
                                   id="text86"
                                   style="font-style:italic;font-variant:normal;font-size:15px;font-family:Mathematica1;-inkscape-font-specification:'Mathematica1 Italic';writing-mode:lr-tb;fill:#000000;fill-opacity:1;fill-rule:nonzero;stroke:none"
                                   transform="translate(26,13)"><tspan
                                   id="tspan84"
                                   y="0"
                                   x="0">-</tspan></text>
<text
                                   id="text90"
                                   style="font-style:italic;font-variant:normal;font-size:15px;font-family:Times;-inkscape-font-specification:Times-Italic;writing-mode:lr-tb;fill:#000000;fill-opacity:1;fill-rule:nonzero;stroke:none"
                                   transform="translate(36,13)"><tspan
                                   id="tspan88"
                                   y="0"
                                   x="0">1</tspan></text>
</g></g><g
                                 transform="translate(-101.591,-12.565)"
                                 id="g92" /></g></g></g></g></g></g></g></g><g
                 id="g94"><g
                   clip-path="url(#clipPath100)"
                   id="g96"><g
                     id="g102"><g
                       clip-path="url(#clipPath108)"
                       id="g104"><path
                         id="path110"
                         style="fill:#000000;fill-opacity:1;fill-rule:evenodd;stroke:none"
                         d="m 196.816,110 c 0,-0.747 -0.297,-1.463 -0.825,-1.991 -0.528,-0.528 -1.244,-0.825 -1.991,-0.825 -0.747,0 -1.463,0.297 -1.991,0.825 -0.528,0.528 -0.825,1.244 -0.825,1.991 0,0.747 0.297,1.463 0.825,1.991 0.528,0.528 1.244,0.825 1.991,0.825 0.747,0 1.463,-0.297 1.991,-0.825 0.528,-0.528 0.825,-1.244 0.825,-1.991 z" /><path
                         id="path112"
                         style="fill:#000000;fill-opacity:1;fill-rule:evenodd;stroke:none"
                         d="m 273.816,110 c 0,-0.747 -0.297,-1.463 -0.825,-1.991 -0.528,-0.528 -1.244,-0.825 -1.991,-0.825 -0.747,0 -1.463,0.297 -1.991,0.825 -0.528,0.528 -0.825,1.244 -0.825,1.991 0,0.747 0.297,1.463 0.825,1.991 0.528,0.528 1.244,0.825 1.991,0.825 0.747,0 1.463,-0.297 1.991,-0.825 0.528,-0.528 0.825,-1.244 0.825,-1.991 z" /><path
                         id="path114"
                         style="fill:#000000;fill-opacity:1;fill-rule:evenodd;stroke:none"
                         d="m 196.816,32 c 0,-0.747 -0.297,-1.463 -0.825,-1.991 -0.528,-0.528 -1.244,-0.825 -1.991,-0.825 -0.747,0 -1.463,0.297 -1.991,0.825 -0.528,0.528 -0.825,1.244 -0.825,1.991 0,0.747 0.297,1.463 0.825,1.991 0.528,0.528 1.244,0.825 1.991,0.825 0.747,0 1.463,-0.297 1.991,-0.825 0.528,-0.528 0.825,-1.244 0.825,-1.991 z" /><path
                         id="path116"
                         style="fill:none;stroke:#0000ff;stroke-width:1;stroke-linecap:square;stroke-linejoin:miter;stroke-miterlimit:3.25;stroke-dasharray:none;stroke-opacity:1"
                         d="M 193.912,109.619 V 32.381 l 77.237,77.238 h -77.237" /><g
                         id="g118"><g
                           clip-path="url(#clipPath124)"
                           id="g120"><g
                             id="g126"><g
                               transform="translate(210.53,12.565)"
                               id="g128"><g
                                 id="g130"><g
                                   clip-path="url(#clipPath136)"
                                   id="g132"><text
                                   id="text140"
                                   style="font-style:italic;font-variant:normal;font-size:15px;font-family:Times;-inkscape-font-specification:Times-Italic;writing-mode:lr-tb;fill:#000000;fill-opacity:1;fill-rule:nonzero;stroke:none"
                                   transform="translate(1,13)"><tspan
                                   id="tspan138"
                                   y="0"
                                   x="0">z</tspan></text>
<text
                                   id="text144"
                                   style="font-style:italic;font-variant:normal;font-size:15px;font-family:Mathematica1;-inkscape-font-specification:'Mathematica1 Italic';writing-mode:lr-tb;fill:#000000;fill-opacity:1;fill-rule:nonzero;stroke:none"
                                   transform="translate(7,13)"><tspan
                                   id="tspan142"
                                   y="0"
                                   x="0">=</tspan></text>
<text
                                   id="text148"
                                   style="font-style:italic;font-variant:normal;font-size:15px;font-family:Times;-inkscape-font-specification:Times-Italic;writing-mode:lr-tb;fill:#000000;fill-opacity:1;fill-rule:nonzero;stroke:none"
                                   transform="translate(18,13)"><tspan
                                   id="tspan146"
                                   y="0"
                                   x="0">n</tspan></text>
<text
                                   id="text152"
                                   style="font-style:italic;font-variant:normal;font-size:15px;font-family:Mathematica1;-inkscape-font-specification:'Mathematica1 Italic';writing-mode:lr-tb;fill:#000000;fill-opacity:1;fill-rule:nonzero;stroke:none"
                                   transform="translate(26,13)"><tspan
                                   id="tspan150"
                                   y="0"
                                   x="0">-</tspan></text>
<text
                                   id="text156"
                                   style="font-style:italic;font-variant:normal;font-size:15px;font-family:Times;-inkscape-font-specification:Times-Italic;writing-mode:lr-tb;fill:#000000;fill-opacity:1;fill-rule:nonzero;stroke:none"
                                   transform="translate(36,13)"><tspan
                                   id="tspan154"
                                   y="0"
                                   x="0">2</tspan></text>
</g></g><g
                                 transform="translate(-210.53,-12.565)"
                                 id="g158" /></g></g></g></g></g></g></g></g><g
                 id="g160"><g
                   clip-path="url(#clipPath166)"
                   id="g162"><g
                     id="g168"><g
                       clip-path="url(#clipPath174)"
                       id="g170"><path
                         id="path176"
                         style="fill:#000000;fill-opacity:1;fill-rule:evenodd;stroke:none"
                         d="m 305.816,110 c 0,-0.747 -0.297,-1.463 -0.825,-1.991 -0.528,-0.528 -1.244,-0.825 -1.991,-0.825 -0.747,0 -1.463,0.297 -1.991,0.825 -0.528,0.528 -0.825,1.244 -0.825,1.991 0,0.747 0.297,1.463 0.825,1.991 0.528,0.528 1.244,0.825 1.991,0.825 0.747,0 1.463,-0.297 1.991,-0.825 0.528,-0.528 0.825,-1.244 0.825,-1.991 z" /><path
                         id="path178"
                         style="fill:#000000;fill-opacity:1;fill-rule:evenodd;stroke:none"
                         d="m 343.816,110 c 0,-0.747 -0.297,-1.463 -0.825,-1.991 -0.528,-0.528 -1.244,-0.825 -1.991,-0.825 -0.747,0 -1.463,0.297 -1.991,0.825 -0.528,0.528 -0.825,1.244 -0.825,1.991 0,0.747 0.297,1.463 0.825,1.991 0.528,0.528 1.244,0.825 1.991,0.825 0.747,0 1.463,-0.297 1.991,-0.825 0.528,-0.528 0.825,-1.244 0.825,-1.991 z" /><path
                         id="path180"
                         style="fill:#000000;fill-opacity:1;fill-rule:evenodd;stroke:none"
                         d="m 305.816,71 c 0,-0.747 -0.297,-1.463 -0.825,-1.991 -0.528,-0.528 -1.244,-0.825 -1.991,-0.825 -0.747,0 -1.463,0.297 -1.991,0.825 -0.528,0.528 -0.825,1.244 -0.825,1.991 0,0.747 0.297,1.463 0.825,1.991 0.528,0.528 1.244,0.825 1.991,0.825 0.747,0 1.463,-0.297 1.991,-0.825 0.528,-0.528 0.825,-1.244 0.825,-1.991 z" /><path
                         id="path182"
                         style="fill:#000000;fill-opacity:1;fill-rule:evenodd;stroke:none"
                         d="m 343.816,71 c 0,-0.747 -0.297,-1.463 -0.825,-1.991 -0.528,-0.528 -1.244,-0.825 -1.991,-0.825 -0.747,0 -1.463,0.297 -1.991,0.825 -0.528,0.528 -0.825,1.244 -0.825,1.991 0,0.747 0.297,1.463 0.825,1.991 0.528,0.528 1.244,0.825 1.991,0.825 0.747,0 1.463,-0.297 1.991,-0.825 0.528,-0.528 0.825,-1.244 0.825,-1.991 z" /><path
                         id="path184"
                         style="fill:#000000;fill-opacity:1;fill-rule:evenodd;stroke:none"
                         d="m 305.816,32 c 0,-0.747 -0.297,-1.463 -0.825,-1.991 -0.528,-0.528 -1.244,-0.825 -1.991,-0.825 -0.747,0 -1.463,0.297 -1.991,0.825 -0.528,0.528 -0.825,1.244 -0.825,1.991 0,0.747 0.297,1.463 0.825,1.991 0.528,0.528 1.244,0.825 1.991,0.825 0.747,0 1.463,-0.297 1.991,-0.825 0.528,-0.528 0.825,-1.244 0.825,-1.991 z" /><path
                         id="path186"
                         style="fill:#000000;fill-opacity:1;fill-rule:evenodd;stroke:none"
                         d="m 382.816,110 c 0,-0.747 -0.297,-1.463 -0.825,-1.991 -0.528,-0.528 -1.244,-0.825 -1.991,-0.825 -0.747,0 -1.463,0.297 -1.991,0.825 -0.528,0.528 -0.825,1.244 -0.825,1.991 0,0.747 0.297,1.463 0.825,1.991 0.528,0.528 1.244,0.825 1.991,0.825 0.747,0 1.463,-0.297 1.991,-0.825 0.528,-0.528 0.825,-1.244 0.825,-1.991 z" /><path
                         id="path188"
                         style="fill:none;stroke:#0000ff;stroke-width:1;stroke-linecap:square;stroke-linejoin:miter;stroke-miterlimit:3.25;stroke-dasharray:none;stroke-opacity:1"
                         d="M 302.851,109.619 V 32.381 l 77.237,77.238 h -77.237" /><g
                         id="g190"><g
                           clip-path="url(#clipPath196)"
                           id="g192"><g
                             id="g198"><g
                               transform="translate(319.47,12.565)"
                               id="g200"><g
                                 id="g202"><g
                                   clip-path="url(#clipPath208)"
                                   id="g204"><text
                                   id="text212"
                                   style="font-style:italic;font-variant:normal;font-size:15px;font-family:Times;-inkscape-font-specification:Times-Italic;writing-mode:lr-tb;fill:#000000;fill-opacity:1;fill-rule:nonzero;stroke:none"
                                   transform="translate(1,13)"><tspan
                                   id="tspan210"
                                   y="0"
                                   x="0">z</tspan></text>
<text
                                   id="text216"
                                   style="font-style:italic;font-variant:normal;font-size:15px;font-family:Mathematica1;-inkscape-font-specification:'Mathematica1 Italic';writing-mode:lr-tb;fill:#000000;fill-opacity:1;fill-rule:nonzero;stroke:none"
                                   transform="translate(7,13)"><tspan
                                   id="tspan214"
                                   y="0"
                                   x="0">=</tspan></text>
<text
                                   id="text220"
                                   style="font-style:italic;font-variant:normal;font-size:15px;font-family:Times;-inkscape-font-specification:Times-Italic;writing-mode:lr-tb;fill:#000000;fill-opacity:1;fill-rule:nonzero;stroke:none"
                                   transform="translate(18,13)"><tspan
                                   id="tspan218"
                                   y="0"
                                   x="0">n</tspan></text>
<text
                                   id="text224"
                                   style="font-style:italic;font-variant:normal;font-size:15px;font-family:Mathematica1;-inkscape-font-specification:'Mathematica1 Italic';writing-mode:lr-tb;fill:#000000;fill-opacity:1;fill-rule:nonzero;stroke:none"
                                   transform="translate(26,13)"><tspan
                                   id="tspan222"
                                   y="0"
                                   x="0">-</tspan></text>
<text
                                   id="text228"
                                   style="font-style:italic;font-variant:normal;font-size:15px;font-family:Times;-inkscape-font-specification:Times-Italic;writing-mode:lr-tb;fill:#000000;fill-opacity:1;fill-rule:nonzero;stroke:none"
                                   transform="translate(36,13)"><tspan
                                   id="tspan226"
                                   y="0"
                                   x="0">3</tspan></text>
</g></g><g
                                 transform="translate(-319.47,-12.565)"
                                 id="g230" /></g></g></g></g></g></g></g></g><g
                 id="g232"><g
                   clip-path="url(#clipPath238)"
                   id="g234"><g
                     id="g240"><g
                       clip-path="url(#clipPath246)"
                       id="g242"><path
                         id="path248"
                         style="fill:#000000;fill-opacity:1;fill-rule:evenodd;stroke:none"
                         d="m 414.816,110 c 0,-0.747 -0.297,-1.463 -0.825,-1.991 -0.528,-0.528 -1.244,-0.825 -1.991,-0.825 -0.747,0 -1.463,0.297 -1.991,0.825 -0.528,0.528 -0.825,1.244 -0.825,1.991 0,0.747 0.297,1.463 0.825,1.991 0.528,0.528 1.244,0.825 1.991,0.825 0.747,0 1.463,-0.297 1.991,-0.825 0.528,-0.528 0.825,-1.244 0.825,-1.991 z" /><path
                         id="path250"
                         style="fill:#000000;fill-opacity:1;fill-rule:evenodd;stroke:none"
                         d="m 440.816,110 c 0,-0.747 -0.297,-1.463 -0.825,-1.991 -0.528,-0.528 -1.244,-0.825 -1.991,-0.825 -0.747,0 -1.463,0.297 -1.991,0.825 -0.528,0.528 -0.825,1.244 -0.825,1.991 0,0.747 0.297,1.463 0.825,1.991 0.528,0.528 1.244,0.825 1.991,0.825 0.747,0 1.463,-0.297 1.991,-0.825 0.528,-0.528 0.825,-1.244 0.825,-1.991 z" /><path
                         id="path252"
                         style="fill:#000000;fill-opacity:1;fill-rule:evenodd;stroke:none"
                         d="m 414.816,84 c 0,-0.747 -0.297,-1.463 -0.825,-1.991 -0.528,-0.528 -1.244,-0.825 -1.991,-0.825 -0.747,0 -1.463,0.297 -1.991,0.825 -0.528,0.528 -0.825,1.244 -0.825,1.991 0,0.747 0.297,1.463 0.825,1.991 0.528,0.528 1.244,0.825 1.991,0.825 0.747,0 1.463,-0.297 1.991,-0.825 0.528,-0.528 0.825,-1.244 0.825,-1.991 z" /><path
                         id="path254"
                         style="fill:#000000;fill-opacity:1;fill-rule:evenodd;stroke:none"
                         d="m 440.816,84 c 0,-0.747 -0.297,-1.463 -0.825,-1.991 -0.528,-0.528 -1.244,-0.825 -1.991,-0.825 -0.747,0 -1.463,0.297 -1.991,0.825 -0.528,0.528 -0.825,1.244 -0.825,1.991 0,0.747 0.297,1.463 0.825,1.991 0.528,0.528 1.244,0.825 1.991,0.825 0.747,0 1.463,-0.297 1.991,-0.825 0.528,-0.528 0.825,-1.244 0.825,-1.991 z" /><path
                         id="path256"
                         style="fill:#000000;fill-opacity:1;fill-rule:evenodd;stroke:none"
                         d="m 414.816,58 c 0,-0.747 -0.297,-1.463 -0.825,-1.991 -0.528,-0.528 -1.244,-0.825 -1.991,-0.825 -0.747,0 -1.463,0.297 -1.991,0.825 -0.528,0.528 -0.825,1.244 -0.825,1.991 0,0.747 0.297,1.463 0.825,1.991 0.528,0.528 1.244,0.825 1.991,0.825 0.747,0 1.463,-0.297 1.991,-0.825 0.528,-0.528 0.825,-1.244 0.825,-1.991 z" /><path
                         id="path258"
                         style="fill:#000000;fill-opacity:1;fill-rule:evenodd;stroke:none"
                         d="m 465.816,110 c 0,-0.747 -0.297,-1.463 -0.825,-1.991 -0.528,-0.528 -1.244,-0.825 -1.991,-0.825 -0.747,0 -1.463,0.297 -1.991,0.825 -0.528,0.528 -0.825,1.244 -0.825,1.991 0,0.747 0.297,1.463 0.825,1.991 0.528,0.528 1.244,0.825 1.991,0.825 0.747,0 1.463,-0.297 1.991,-0.825 0.528,-0.528 0.825,-1.244 0.825,-1.991 z" /><path
                         id="path260"
                         style="fill:#000000;fill-opacity:1;fill-rule:evenodd;stroke:none"
                         d="m 465.816,84 c 0,-0.747 -0.297,-1.463 -0.825,-1.991 -0.528,-0.528 -1.244,-0.825 -1.991,-0.825 -0.747,0 -1.463,0.297 -1.991,0.825 -0.528,0.528 -0.825,1.244 -0.825,1.991 0,0.747 0.297,1.463 0.825,1.991 0.528,0.528 1.244,0.825 1.991,0.825 0.747,0 1.463,-0.297 1.991,-0.825 0.528,-0.528 0.825,-1.244 0.825,-1.991 z" /><path
                         id="path262"
                         style="fill:#000000;fill-opacity:1;fill-rule:evenodd;stroke:none"
                         d="m 440.816,58 c 0,-0.747 -0.297,-1.463 -0.825,-1.991 -0.528,-0.528 -1.244,-0.825 -1.991,-0.825 -0.747,0 -1.463,0.297 -1.991,0.825 -0.528,0.528 -0.825,1.244 -0.825,1.991 0,0.747 0.297,1.463 0.825,1.991 0.528,0.528 1.244,0.825 1.991,0.825 0.747,0 1.463,-0.297 1.991,-0.825 0.528,-0.528 0.825,-1.244 0.825,-1.991 z" /><path
                         id="path264"
                         style="fill:#000000;fill-opacity:1;fill-rule:evenodd;stroke:none"
                         d="m 491.816,110 c 0,-0.747 -0.297,-1.463 -0.825,-1.991 -0.528,-0.528 -1.244,-0.825 -1.991,-0.825 -0.747,0 -1.463,0.297 -1.991,0.825 -0.528,0.528 -0.825,1.244 -0.825,1.991 0,0.747 0.297,1.463 0.825,1.991 0.528,0.528 1.244,0.825 1.991,0.825 0.747,0 1.463,-0.297 1.991,-0.825 0.528,-0.528 0.825,-1.244 0.825,-1.991 z" /><path
                         id="path266"
                         style="fill:#000000;fill-opacity:1;fill-rule:evenodd;stroke:none"
                         d="m 414.816,32 c 0,-0.747 -0.297,-1.463 -0.825,-1.991 -0.528,-0.528 -1.244,-0.825 -1.991,-0.825 -0.747,0 -1.463,0.297 -1.991,0.825 -0.528,0.528 -0.825,1.244 -0.825,1.991 0,0.747 0.297,1.463 0.825,1.991 0.528,0.528 1.244,0.825 1.991,0.825 0.747,0 1.463,-0.297 1.991,-0.825 0.528,-0.528 0.825,-1.244 0.825,-1.991 z" /><path
                         id="path268"
                         style="fill:none;stroke:#0000ff;stroke-width:1;stroke-linecap:square;stroke-linejoin:miter;stroke-miterlimit:3.25;stroke-dasharray:none;stroke-opacity:1"
                         d="M 411.79,109.619 V 32.381 l 77.238,77.238 H 411.79" /><g
                         id="g270"><g
                           clip-path="url(#clipPath276)"
                           id="g272"><g
                             id="g278"><g
                               transform="translate(428.409,12.565)"
                               id="g280"><g
                                 id="g282"><g
                                   clip-path="url(#clipPath288)"
                                   id="g284"><text
                                   id="text292"
                                   style="font-style:italic;font-variant:normal;font-size:15px;font-family:Times;-inkscape-font-specification:Times-Italic;writing-mode:lr-tb;fill:#000000;fill-opacity:1;fill-rule:nonzero;stroke:none"
                                   transform="translate(1,13)"><tspan
                                   id="tspan290"
                                   y="0"
                                   x="0">z</tspan></text>
<text
                                   id="text296"
                                   style="font-style:italic;font-variant:normal;font-size:15px;font-family:Mathematica1;-inkscape-font-specification:'Mathematica1 Italic';writing-mode:lr-tb;fill:#000000;fill-opacity:1;fill-rule:nonzero;stroke:none"
                                   transform="translate(7,13)"><tspan
                                   id="tspan294"
                                   y="0"
                                   x="0">=</tspan></text>
<text
                                   id="text300"
                                   style="font-style:italic;font-variant:normal;font-size:15px;font-family:Times;-inkscape-font-specification:Times-Italic;writing-mode:lr-tb;fill:#000000;fill-opacity:1;fill-rule:nonzero;stroke:none"
                                   transform="translate(18,13)"><tspan
                                   id="tspan298"
                                   y="0"
                                   x="0">n</tspan></text>
<text
                                   id="text304"
                                   style="font-style:italic;font-variant:normal;font-size:15px;font-family:Mathematica1;-inkscape-font-specification:'Mathematica1 Italic';writing-mode:lr-tb;fill:#000000;fill-opacity:1;fill-rule:nonzero;stroke:none"
                                   transform="translate(26,13)"><tspan
                                   id="tspan302"
                                   y="0"
                                   x="0">-</tspan></text>
<text
                                   id="text308"
                                   style="font-style:italic;font-variant:normal;font-size:15px;font-family:Times;-inkscape-font-specification:Times-Italic;writing-mode:lr-tb;fill:#000000;fill-opacity:1;fill-rule:nonzero;stroke:none"
                                   transform="translate(36,13)"><tspan
                                   id="tspan306"
                                   y="0"
                                   x="0">4</tspan></text>
</g></g><g
                                 transform="translate(-428.409,-12.565)"
                                 id="g310" /></g></g></g></g></g></g></g></g></g></g></g></g></g></g></svg>